# xmcd
#
# Track frame offsets: 
#        150
#        50055
#        96462
#        137242
#        175770
#
# Disc length: 2744 seconds
#
# Revision: 1
# Processed by: cddbd v1.5.1PL2 Copyright (c) Steve Scherf et al.
# Submitted via: ExactAudioCopy v0.95b3
#
DISCID=460ab605
DTITLE=The Herbie Hancock Trio - Herbie Hancock Trio With Ron Carter+T
DTITLE=ony Williams
DYEAR=1981
DGENRE=Jazz
TTITLE0=Stablemates
TTITLE1=Dolphin Dance
TTITLE2=A Slight Smile
TTITLE3=That Old Black Magic
TTITLE4=La Maison Goree
EXTD=YEAR: 1981
EXTT0=
EXTT1=
EXTT2=
EXTT3=
EXTT4=
PLAYORDER=
